<?xml version="1.0" encoding="UTF-8"?>
<!DOCTYPE svg PUBLIC "-//W3C//DTD SVG 1.1//EN" "http://www.w3.org/Graphics/SVG/1.1/DTD/svg11.dtd">
<svg xmlns="http://www.w3.org/2000/svg" version="1.1" width="342px" height="77px" style="shape-rendering:geometricPrecision; text-rendering:geometricPrecision; image-rendering:optimizeQuality; fill-rule:evenodd; clip-rule:evenodd" xmlns:xlink="http://www.w3.org/1999/xlink">
<g><path style="opacity:0.756" fill="#fefffe" d="M 127.5,-0.5 C 133.833,-0.5 140.167,-0.5 146.5,-0.5C 147.568,0.434475 148.901,0.767809 150.5,0.5C 150.824,4.55461 150.491,8.55461 149.5,12.5C 147.824,4.66542 142.991,1.33208 135,2.5C 126.737,1.96117 121.403,5.62783 119,13.5C 116.61,30.9396 124.11,39.7729 141.5,40C 146.208,39.112 149.042,36.2787 150,31.5C 150.333,31.8333 150.667,32.1667 151,32.5C 151.852,41.8431 147.519,45.5098 138,43.5C 117.07,42.567 109.07,31.9003 114,11.5C 116.833,5.49328 121.333,1.49328 127.5,-0.5 Z"/></g>
<g><path style="opacity:0.819" fill="#fefffe" d="M 25.5,9.5 C 33.84,9.3336 42.1733,9.50027 50.5,10C 63.4836,11.0596 72.9836,17.2262 79,28.5C 79.282,32.0016 79.4487,35.3349 79.5,38.5C 84.5082,36.0018 89.5082,34.6685 94.5,34.5C 87.7014,37.6279 83.0347,42.6279 80.5,49.5C 82.2268,55.7292 86.2268,59.8958 92.5,62C 98.0737,63.7149 103.74,65.0482 109.5,66C 100.002,67.9807 90.6686,67.314 81.5,64C 73.7985,61.6401 69.9652,56.4735 70,48.5C 57.2812,54.9107 43.7812,57.744 29.5,57C 41.4226,55.1369 52.7559,51.4702 63.5,46C 71.4226,39.0772 71.4226,32.0772 63.5,25C 58.6151,21.7027 53.2817,19.3694 47.5,18C 33.5641,15.4149 19.5641,14.4149 5.5,15C 12.0199,12.335 18.6866,10.5017 25.5,9.5 Z"/></g>
<g><path style="opacity:0.657" fill="#fefffe" d="M 165.5,10.5 C 166.79,11.0577 167.623,12.0577 168,13.5C 171.333,22.1667 174.667,30.8333 178,39.5C 179.307,40.7717 180.807,41.7717 182.5,42.5C 179.572,43.4841 176.572,43.8174 173.5,43.5C 172.84,39.6873 171.674,36.0207 170,32.5C 167,31.1667 164,31.1667 161,32.5C 160.167,35 159.333,37.5 158.5,40C 159.022,40.9503 159.689,41.7836 160.5,42.5C 157.167,43.8333 153.833,43.8333 150.5,42.5C 153.467,41.5847 155.3,39.5847 156,36.5C 159.077,27.7665 162.244,19.0999 165.5,10.5 Z M 164.5,20.5 C 166.555,22.2339 167.888,24.5672 168.5,27.5C 166.5,28.8333 164.5,28.8333 162.5,27.5C 163.577,25.2706 164.244,22.9372 164.5,20.5 Z"/></g>
<g><path style="opacity:0.655" fill="#fefffe" d="M 250.5,10.5 C 255.121,19.8258 259.287,29.4925 263,39.5C 264.307,40.7717 265.807,41.7717 267.5,42.5C 264.167,43.8333 260.833,43.8333 257.5,42.5C 257.709,41.914 258.043,41.414 258.5,41C 257.167,38 255.833,35 254.5,32C 251.518,31.502 248.518,31.3354 245.5,31.5C 245.045,34.2035 244.378,36.8702 243.5,39.5C 243.919,40.6721 244.585,41.6721 245.5,42.5C 242.167,43.8333 238.833,43.8333 235.5,42.5C 237.709,41.937 239.209,40.6036 240,38.5C 243.238,29.0316 246.738,19.6982 250.5,10.5 Z M 249.5,19.5 C 251.105,22.1198 252.438,24.9531 253.5,28C 251.527,28.4955 249.527,28.6621 247.5,28.5C 248.167,25.5 248.833,22.5 249.5,19.5 Z"/></g>
<g><path style="opacity:0.655" fill="#fefffe" d="M 295.5,10.5 C 296.79,11.0577 297.623,12.0577 298,13.5C 301.333,22.1667 304.667,30.8333 308,39.5C 309.307,40.7717 310.807,41.7717 312.5,42.5C 309.572,43.4841 306.572,43.8174 303.5,43.5C 302.84,39.6873 301.674,36.0207 300,32.5C 297,31.1667 294,31.1667 291,32.5C 290.167,35 289.333,37.5 288.5,40C 289.022,40.9503 289.689,41.7836 290.5,42.5C 287.167,43.8333 283.833,43.8333 280.5,42.5C 283.467,41.5847 285.3,39.5847 286,36.5C 289.077,27.7665 292.244,19.0999 295.5,10.5 Z M 294.5,20.5 C 296.555,22.2339 297.888,24.5672 298.5,27.5C 296.5,28.8333 294.5,28.8333 292.5,27.5C 293.577,25.2706 294.244,22.9372 294.5,20.5 Z"/></g>
<g><path style="opacity:0.703" fill="#fefffe" d="M 183.5,11.5 C 189.621,11.0899 195.621,11.5899 201.5,13C 205.665,18.5379 205.332,23.8712 200.5,29C 203.5,32.6667 206.5,36.3333 209.5,40C 211.5,40.8333 213.5,41.6667 215.5,42.5C 209.98,44.5818 205.48,43.2485 202,38.5C 200.167,36 198.333,33.5 196.5,31C 194.866,30.5065 193.199,30.3398 191.5,30.5C 191.335,33.8499 191.502,37.1832 192,40.5C 193.205,41.0712 194.372,41.7379 195.5,42.5C 191.833,43.8333 188.167,43.8333 184.5,42.5C 185.522,41.646 186.355,40.646 187,39.5C 187.667,31.1667 187.667,22.8333 187,14.5C 185.271,14.0257 184.105,13.0257 183.5,11.5 Z M 192.5,13.5 C 200.325,15.3207 202.325,19.8207 198.5,27C 196.19,27.4966 193.857,27.6633 191.5,27.5C 191.226,22.737 191.559,18.0704 192.5,13.5 Z"/></g>
<g><path style="opacity:0.663" fill="#fefffe" d="M 207.5,11.5 C 211.555,11.1758 215.555,11.5091 219.5,12.5C 218.689,13.2164 218.022,14.0497 217.5,15C 219.687,21.7353 222.354,28.2353 225.5,34.5C 228.646,28.2353 231.313,21.7353 233.5,15C 232.978,14.0497 232.311,13.2164 231.5,12.5C 234.833,11.1667 238.167,11.1667 241.5,12.5C 240.372,13.2621 239.205,13.9288 238,14.5C 233.962,24.0738 229.796,33.5738 225.5,43C 224.551,43.6172 223.718,43.4506 223,42.5C 219.443,33.0527 215.61,23.7194 211.5,14.5C 209.668,13.9432 208.335,12.9432 207.5,11.5 Z"/></g>
<g><path style="opacity:0.724" fill="#fefffe" d="M 268.5,11.5 C 272.226,11.1774 275.893,11.5108 279.5,12.5C 278.675,13.3857 277.675,13.719 276.5,13.5C 276.666,23.5056 276.5,33.5056 276,43.5C 274.674,48.9864 271.507,51.9864 266.5,52.5C 270.73,48.0771 272.563,42.7438 272,36.5C 272.691,28.8053 272.525,21.1387 271.5,13.5C 269.821,13.7148 268.821,13.0481 268.5,11.5 Z"/></g>
<g><path style="opacity:0.732" fill="#fefffe" d="M 313.5,11.5 C 317.226,11.1774 320.893,11.5108 324.5,12.5C 323.758,13.2868 322.925,13.9535 322,14.5C 321.333,22.5 321.333,30.5 322,38.5C 324.47,40.4865 327.303,40.9865 330.5,40C 331.701,39.0975 332.535,37.9308 333,36.5C 333.497,38.8098 333.663,41.1432 333.5,43.5C 327.132,43.8297 320.798,43.4963 314.5,42.5C 315.522,41.646 316.355,40.646 317,39.5C 317.667,31.1667 317.667,22.8333 317,14.5C 315.271,14.0257 314.105,13.0257 313.5,11.5 Z"/></g>
<g><path style="opacity:0.862" fill="#f6d701" d="M 84.5,18.5 C 94.6037,17.8179 97.2704,21.9846 92.5,31C 83.5688,33.7336 80.0688,30.5669 82,21.5C 83.045,20.6266 83.8783,19.6266 84.5,18.5 Z"/></g>
<g><path style="opacity:0.649" fill="#fefffe" d="M 122.5,56.5 C 126.009,60.327 128.675,64.827 130.5,70C 127.507,70.2572 126.174,68.7572 126.5,65.5C 122.855,64.6797 120.522,66.013 119.5,69.5C 118.635,70.5827 117.635,70.7494 116.5,70C 118.641,65.5526 120.641,61.0526 122.5,56.5 Z M 122.5,61.5 C 125.962,63.1927 125.962,64.1927 122.5,64.5C 122.5,63.5 122.5,62.5 122.5,61.5 Z"/></g>
<g><path style="opacity:0.622" fill="#fefffe" d="M 151.5,56.5 C 152.5,56.5 153.5,56.5 154.5,56.5C 154.5,61.1667 154.5,65.8333 154.5,70.5C 151.482,70.6646 148.482,70.498 145.5,70C 141.514,63.1647 143.514,59.998 151.5,60.5C 151.5,59.1667 151.5,57.8333 151.5,56.5 Z M 147.5,61.5 C 153.532,63.5435 153.865,66.2102 148.5,69.5C 144.933,67.2347 144.6,64.568 147.5,61.5 Z"/></g>
<g><path style="opacity:0.644" fill="#fefffe" d="M 156.5,56.5 C 157.675,56.281 158.675,56.6143 159.5,57.5C 157.948,58.7979 156.948,58.4646 156.5,56.5 Z"/></g>
<g><path style="opacity:0.518" fill="#fefffe" d="M 161.5,56.5 C 162.5,56.5 163.5,56.5 164.5,56.5C 164.227,58.451 164.893,59.951 166.5,61C 164.656,63.8037 163.989,66.9703 164.5,70.5C 163.5,70.5 162.5,70.5 161.5,70.5C 160.833,58.5 160.167,58.5 159.5,70.5C 158.5,70.5 157.5,70.5 156.5,70.5C 156.5,67.1667 156.5,63.8333 156.5,60.5C 158.167,60.5 159.833,60.5 161.5,60.5C 161.5,59.1667 161.5,57.8333 161.5,56.5 Z"/></g>
<g><path style="opacity:0.641" fill="#fefffe" d="M 175.5,56.5 C 181.646,56.0817 182.979,58.415 179.5,63.5C 180.345,65.7619 181.678,66.4286 183.5,65.5C 186.028,66.4978 186.028,67.3311 183.5,68C 184.167,68.6667 184.833,69.3333 185.5,70C 182.842,69.2066 180.175,69.3732 177.5,70.5C 171.601,69.3392 170.934,66.6725 175.5,62.5C 174.181,60.4684 174.181,58.4684 175.5,56.5 Z M 177.5,57.5 C 179.859,58.3887 180.025,59.722 178,61.5C 176.666,60.1221 176.499,58.7887 177.5,57.5 Z M 176.5,65.5 C 179.861,66.2032 180.194,67.5365 177.5,69.5C 175.358,68.5629 175.024,67.2296 176.5,65.5 Z"/></g>
<g><path style="opacity:0.619" fill="#fefffe" d="M 196.5,56.5 C 199.187,56.3359 201.854,56.5026 204.5,57C 206.645,57.7431 206.811,58.5765 205,59.5C 199.7,56.2359 196.2,57.5692 194.5,63.5C 196.2,69.4308 199.7,70.7641 205,67.5C 206.608,67.9739 206.774,68.6406 205.5,69.5C 196.541,72.6308 192.374,69.6308 193,60.5C 193.69,58.6498 194.856,57.3164 196.5,56.5 Z"/></g>
<g><path style="opacity:0.667" fill="#fefffe" d="M 252.5,56.5 C 253.805,58.3972 254.471,60.7305 254.5,63.5C 254.167,65.8333 253.833,68.1667 253.5,70.5C 252.507,65.8804 252.173,61.2137 252.5,56.5 Z"/></g>
<g><path style="opacity:0.611" fill="#fefffe" d="M 257.5,56.5 C 259.176,57.1834 259.843,58.5168 259.5,60.5C 261.5,60.5 263.5,60.5 265.5,60.5C 265.5,63.8333 265.5,67.1667 265.5,70.5C 264.5,70.5 263.5,70.5 262.5,70.5C 262.5,67.5 262.5,64.5 262.5,61.5C 261.5,61.5 260.5,61.5 259.5,61.5C 259.817,64.5719 259.484,67.5719 258.5,70.5C 258.039,67.0449 257.039,63.8782 255.5,61C 257.107,59.951 257.773,58.451 257.5,56.5 Z"/></g>
<g><path style="opacity:0.644" fill="#fefffe" d="M 262.5,56.5 C 263.675,56.281 264.675,56.6143 265.5,57.5C 263.948,58.7979 262.948,58.4646 262.5,56.5 Z"/></g>
<g><path style="opacity:0.606" fill="#fefffe" d="M 131.5,60.5 C 133.197,62.3052 134.03,64.6385 134,67.5C 135.079,69.3937 136.413,69.727 138,68.5C 138.497,65.854 138.664,63.1873 138.5,60.5C 139.5,60.5 140.5,60.5 141.5,60.5C 141.664,63.1873 141.497,65.854 141,68.5C 138,71.1667 135,71.1667 132,68.5C 131.503,65.854 131.336,63.1873 131.5,60.5 Z"/></g>
<g><path style="opacity:0.609" fill="#fefffe" d="M 210.5,60.5 C 218.993,59.4707 221.327,62.6373 217.5,70C 208.751,71.4259 206.418,68.2592 210.5,60.5 Z M 213.5,61.5 C 218.819,64.1235 218.819,66.7902 213.5,69.5C 209.533,66.7439 209.533,64.0773 213.5,61.5 Z"/></g>
<g><path style="opacity:0.631" fill="#fefffe" d="M 221.5,60.5 C 224.007,60.8046 226.674,60.9713 229.5,61C 231.076,63.9508 231.743,67.1174 231.5,70.5C 230.5,70.5 229.5,70.5 228.5,70.5C 227.948,58.9671 225.948,58.9671 222.5,70.5C 221.513,67.2317 221.18,63.8984 221.5,60.5 Z"/></g>
<g><path style="opacity:0.602" fill="#fefffe" d="M 233.5,60.5 C 235.75,60.1814 237.75,60.6814 239.5,62C 238.216,62.6838 237.049,62.5171 236,61.5C 235.833,62 235.667,62.5 235.5,63C 241.456,68.6468 240.456,70.8135 232.5,69.5C 233.391,68.4104 234.391,68.4104 235.5,69.5C 235.833,69 236.167,68.5 236.5,68C 235.465,66.7263 234.298,65.5596 233,64.5C 232.421,63.0715 232.588,61.7382 233.5,60.5 Z"/></g>
<g><path style="opacity:0.606" fill="#fefffe" d="M 240.5,60.5 C 242.197,62.3052 243.03,64.6385 243,67.5C 244.079,69.3937 245.413,69.727 247,68.5C 247.497,65.854 247.664,63.1873 247.5,60.5C 248.5,60.5 249.5,60.5 250.5,60.5C 250.664,63.1873 250.497,65.854 250,68.5C 247,71.1667 244,71.1667 241,68.5C 240.503,65.854 240.336,63.1873 240.5,60.5 Z"/></g>
<g><path style="opacity:0.609" fill="#fefffe" d="M 266.5,60.5 C 275.868,58.1992 278.868,61.5325 275.5,70.5C 274.682,67.8929 274.182,65.2263 274,62.5C 272.413,61.273 271.079,61.6063 270,63.5C 269.503,65.8098 269.337,68.1432 269.5,70.5C 268.5,70.5 267.5,70.5 266.5,70.5C 266.5,67.1667 266.5,63.8333 266.5,60.5 Z"/></g>
<g><path style="opacity:0.649" fill="#fefffe" d="M 280.5,60.5 C 283.347,60.7824 286.013,60.7824 288.5,60.5C 289.66,64.4589 289.827,68.4589 289,72.5C 285.364,75.2665 281.864,75.0999 278.5,72C 280.585,71.4712 282.418,71.9712 284,73.5C 285.622,73.0459 286.788,72.0459 287.5,70.5C 285.43,70.4477 283.097,70.281 280.5,70C 277.888,66.8359 277.888,63.6693 280.5,60.5 Z M 283.5,61.5 C 288.807,64.1269 288.807,66.7936 283.5,69.5C 279.533,66.7439 279.533,64.0773 283.5,61.5 Z"/></g>
</svg>
